<svg width="73" height="73" viewBox="0 0 73 73" fill="none" xmlns="http://www.w3.org/2000/svg">
<path d="M67.131 51.506C68.3269 52.7045 68.9985 54.3285 68.9985 56.0215C68.9985 57.7146 68.3269 59.3385 67.131 60.537L64.54 63.13C63.9482 63.7249 63.2442 64.1965 62.4689 64.5175C61.6935 64.8385 60.8622 65.0025 60.023 65C59.184 65.0024 58.3529 64.8384 57.5777 64.5174C56.8025 64.1964 56.0987 63.7249 55.507 63.13L34.988 42.613L32.126 45.475C32.2028 46.397 32.077 47.3246 31.7574 48.1928C31.4378 49.061 30.9322 49.8488 30.276 50.501L27.55 53.227C26.9583 53.8218 26.2545 54.2934 25.4793 54.6143C24.7042 54.9353 23.873 55.0994 23.034 55.097C22.1952 55.0993 21.3642 54.9352 20.5892 54.6142C19.8142 54.2932 19.1106 53.8217 18.519 53.227L5.86503 40.575C4.66925 39.3767 3.99768 37.7529 3.99768 36.06C3.99768 34.3671 4.66925 32.7434 5.86503 31.545L8.59103 28.819C9.24326 28.1629 10.0311 27.6573 10.8993 27.3377C11.7675 27.0182 12.6951 26.8923 13.617 26.969L30.97 9.61902C30.8953 8.69769 31.0219 7.77112 31.341 6.90358C31.6601 6.03605 32.1641 5.24832 32.818 4.59502L35.543 1.87002C36.1347 1.27539 36.8383 0.803958 37.6133 0.48298C38.3883 0.162003 39.2192 -0.00214761 40.058 2.1214e-05C41.764 2.1214e-05 43.368 0.664021 44.574 1.87002L57.227 14.522C58.4226 15.7205 59.094 17.3442 59.094 19.037C59.094 20.7298 58.4226 22.3536 57.227 23.552L54.502 26.278C53.8497 26.9342 53.0617 27.4398 52.1933 27.7594C51.3249 28.079 50.3972 28.2048 49.475 28.128L46.613 30.99L67.131 51.506ZM35.164 35.784L39.783 31.165L43.243 27.705L48.398 22.551L48.798 22.951C49.126 23.279 49.556 23.443 49.986 23.443C50.416 23.443 50.846 23.279 51.175 22.951L53.9 20.226C54.0561 20.07 54.1798 19.8848 54.2643 19.681C54.3487 19.4771 54.3922 19.2587 54.3922 19.038C54.3922 18.8174 54.3487 18.5989 54.2643 18.3951C54.1798 18.1912 54.0561 18.006 53.9 17.85L41.246 5.19702C41.0901 5.04084 40.905 4.91699 40.7011 4.83256C40.4972 4.74813 40.2787 4.70479 40.058 4.70502C39.628 4.70502 39.198 4.86902 38.87 5.19702L36.144 7.92202C35.9879 8.07804 35.864 8.26332 35.7794 8.46725C35.6949 8.67118 35.6514 8.88977 35.6514 9.11052C35.6514 9.33128 35.6949 9.54987 35.7794 9.7538C35.864 9.95773 35.9879 10.143 36.144 10.299L36.544 10.699L14.694 32.546L14.294 32.146C14.1381 31.9898 13.953 31.866 13.7491 31.7816C13.5452 31.6971 13.3267 31.6538 13.106 31.654C12.676 31.654 12.246 31.818 11.918 32.146L9.19303 34.87C9.03701 35.026 8.91325 35.2112 8.82881 35.4151C8.74437 35.6189 8.70091 35.8374 8.70091 36.058C8.70091 36.2787 8.74437 36.4971 8.82881 36.701C8.91325 36.9048 9.03701 37.09 9.19303 37.246L21.846 49.9C22.174 50.228 22.604 50.392 23.034 50.392C23.464 50.392 23.894 50.228 24.223 49.9L26.948 47.175C27.1042 47.019 27.2281 46.8337 27.3126 46.6298C27.3971 46.4259 27.4407 46.2073 27.4407 45.9865C27.4407 45.7658 27.3971 45.5472 27.3126 45.3433C27.2281 45.1393 27.1042 44.954 26.948 44.798L26.548 44.398L31.703 39.244L35.164 35.784ZM63.804 54.834L43.285 34.317L38.315 39.287L58.835 59.803C59.162 60.131 59.593 60.295 60.023 60.295C60.453 60.295 60.883 60.131 61.211 59.803L63.804 57.21C63.9601 57.054 64.0838 56.8688 64.1683 56.665C64.2527 56.4611 64.2962 56.2427 64.2962 56.022C64.2962 55.8014 64.2527 55.5829 64.1683 55.3791C64.0838 55.1752 63.9601 54.99 63.804 54.834Z" fill="#3172B9"/>
</svg>
